# xmcd CD database file
#
# Track frame offsets:
#	150
#	15313
#	35996
#	51787
#	55645
#	66901
#	79977
#	94618
#	107656
#	121871
#	136981
#	151607
#	167041
#	182004
#	207842
#	219339
#	236137
#	251616
#	262825
#	278534
#	295559
#
# Disc length: 4153 seconds
#
# Revision: 0
# Processed by: cddbd v1.5.1PL2 Copyright (c) Steve Scherf et al.
# Submitted via: CDex 1.51
#
DISCID=18103715
DTITLE=Glenn Miller Orchestra - Sun Valley Serenade
DYEAR=1900
DGENRE=Jazz
TTITLE0=In the mood
TTITLE1=I know why
TTITLE2=Chattanooga Cho Cho
TTITLE3=Moolight serenade
TTITLE4=Sun valley jump
TTITLE5=Moon love
TTITLE6=A string of pearls
TTITLE7=When you wish upon a star
TTITLE8=That old black magic
TTITLE9=I've got a gal in Kalamazoo
TTITLE10=Pennsylvania 6-5000
TTITLE11=Sunrise serenade
TTITLE12=American patrol
TTITLE13=Serenade in blue
TTITLE14=Boom shot
TTITLE15=People like you and me
TTITLE16=The spirit is willing
TTITLE17=Over the rainbow
TTITLE18=Song of Volga boatmen
TTITLE19=Moonlight sonata
TTITLE20=In the mood (original OST version)
EXTD=
EXTT0=
EXTT1=
EXTT2=
EXTT3=
EXTT4=
EXTT5=
EXTT6=
EXTT7=
EXTT8=
EXTT9=
EXTT10=
EXTT11=
EXTT12=
EXTT13=
EXTT14=
EXTT15=
EXTT16=
EXTT17=
EXTT18=
EXTT19=
EXTT20=
PLAYORDER=
